<?xml version="1.0" encoding="UTF-8"?><svg id="Layer_1" xmlns="http://www.w3.org/2000/svg" viewBox="0 0 500 300"><defs><style>.cls-1{fill:#557086;}</style></defs><g id="Layer_2"><path class="cls-1" d="M361.3,159v30.9h-15.73v-30.9h-27.06v-14.34h27.15v-29.78h15.63v29.78h27.15v14.34h-27.15Z"/></g><g><path class="cls-1" d="M111.5,224.81v-14.89c54.13-42.63,83.45-67.66,83.45-93.6,0-19.17-15.79-27.52-31.35-27.52-18.04,0-32.03,7.67-40.82,18.95l-11.5-11.95c11.5-15.11,31.12-23.68,52.33-23.68,25.03,0,50.52,14.21,50.52,44.21s-31.12,58.64-73.08,91.79h73.75v16.69H111.5Z"/><path class="cls-1" d="M272.09,224.81V99.18l-24.13,25.49-11.28-11.5,37.67-38.79h16.46V224.81h-18.72Z"/></g></svg>