<svg width="103" height="60" viewBox="0 0 103 60" fill="none" xmlns="http://www.w3.org/2000/svg">
<path d="M66.246 14.9318H41.4395L43.4994 7.50616H68.3059L66.246 14.9318Z" fill="#CF202E"/>
<path d="M49.4373 27.4726L62.7676 27.4748L64.8276 20.0492H40.021L34.1387 41.257H45.6149L49.4373 27.4726Z" fill="#CF202E"/>
<path fill-rule="evenodd" clip-rule="evenodd" d="M77.5708 33.5809C77.4347 33.5119 77.3143 33.4155 77.2173 33.2977C77.1203 33.1799 77.0487 33.0433 77.0071 32.8965C76.9867 32.8108 76.9784 32.7227 76.9825 32.6348C76.9874 32.5516 77.0009 32.4691 77.0228 32.3887L81.5162 16.1843C81.5574 15.9836 81.6394 15.7934 81.7572 15.6257C81.8749 15.4579 82.0258 15.3161 82.2006 15.2091C82.5294 15.0257 83.0953 14.9318 83.8937 14.9318H96.2847L98.3424 7.50616H80.9705C77.8056 7.50616 75.6025 7.88192 74.3142 8.59541C73.0259 9.30889 72.138 10.5726 71.6303 12.4312L65.2134 35.5379C65.119 35.8675 65.062 36.2066 65.0434 36.5489C65.0264 36.8948 65.0596 37.2413 65.1418 37.5777C65.4393 38.696 66.1729 39.5907 67.3583 40.2617C68.5437 40.9327 69.9908 41.2503 71.7309 41.2503H89.9148L91.9747 33.8247H78.6846C78.2987 33.8394 77.9153 33.7555 77.5708 33.5809V33.5809Z" fill="#CF202E"/>
<path fill-rule="evenodd" clip-rule="evenodd" d="M9.01692 7.50616L1.24237 35.5379C1.14871 35.8675 1.09244 36.2067 1.07462 36.5489C1.05766 36.8948 1.09081 37.2413 1.17304 37.5777C1.47051 38.696 2.20189 39.5907 3.38954 40.2617C4.5772 40.9327 6.01983 41.2503 7.76217 41.2503H20.6966C23.8615 41.2503 26.0646 40.8745 27.3529 40.1633C28.6412 39.452 29.5291 38.1839 30.0368 36.3252L38.0395 7.50616H26.5633L19.6096 32.5788C19.5675 32.7787 19.485 32.9678 19.3674 33.1347C19.2497 33.3016 19.0993 33.4427 18.9252 33.5495C18.5987 33.7307 18.0306 33.8269 17.2321 33.8269H15.2549C14.8668 33.8407 14.4817 33.7544 14.1366 33.5764C14.0005 33.5074 13.8801 33.411 13.7831 33.2932C13.6861 33.1754 13.6145 33.0388 13.573 32.892C13.5524 32.8056 13.5441 32.7167 13.5483 32.6281C13.5523 32.5455 13.5658 32.4637 13.5886 32.3843L20.4909 7.50616H9.01692Z" fill="#CF202E"/>
<path d="M99.8467 7.50613C100.024 7.50613 100.197 7.5586 100.344 7.65691C100.491 7.75522 100.606 7.89494 100.673 8.05842C100.741 8.2219 100.759 8.40178 100.724 8.57533C100.69 8.74887 100.604 8.90829 100.479 9.03341C100.354 9.15853 100.195 9.24373 100.021 9.27825C99.8477 9.31277 99.6678 9.29506 99.5043 9.22734C99.3409 9.15963 99.2011 9.04496 99.1028 8.89783C99.0045 8.75071 98.9521 8.57773 98.9521 8.40079C98.9466 8.28186 98.9661 8.16312 99.0091 8.05212C99.0522 7.94113 99.1179 7.84033 99.2021 7.75615C99.2863 7.67197 99.387 7.60626 99.498 7.56321C99.609 7.52017 99.7278 7.50073 99.8467 7.50613V7.50613ZM99.8467 9.09638C99.9378 9.09977 100.029 9.0839 100.113 9.04981C100.198 9.01571 100.274 8.96416 100.338 8.89852C100.401 8.83288 100.45 8.75462 100.481 8.66886C100.512 8.58309 100.524 8.49175 100.518 8.40079C100.518 8.21927 100.446 8.04519 100.317 7.91684C100.189 7.78848 100.015 7.71638 99.8333 7.71638C99.6518 7.71638 99.4777 7.78848 99.3493 7.91684C99.221 8.04519 99.1489 8.21927 99.1489 8.40079C99.1422 8.49405 99.1557 8.58765 99.1884 8.67523C99.2211 8.7628 99.2724 8.8423 99.3386 8.90831C99.4048 8.97431 99.4845 9.02528 99.5721 9.05773C99.6598 9.09019 99.7535 9.10337 99.8467 9.09638V9.09638ZM99.8758 8.51933H99.708V8.78996H99.5716V7.97135H99.8914C100.075 7.97135 100.149 8.04964 100.149 8.19502V8.30685C100.151 8.34726 100.141 8.38751 100.12 8.42199C100.099 8.45647 100.067 8.48346 100.03 8.4992L100.254 8.79667H100.086L99.8758 8.51933ZM99.8758 8.09884H99.6969V8.3896H99.8758C99.9652 8.3896 99.9943 8.35606 99.9943 8.29567V8.19725C100.005 8.11897 99.9697 8.09884 99.887 8.09884H99.8758Z" fill="#CF202E"/>
<path d="M3.95661 52.145C6.2514 52.145 7.9244 53.7822 7.9244 56.0658C7.9244 58.3494 6.26258 59.9888 3.95661 59.9888C1.65064 59.9888 0 58.3516 0 56.0658C0 53.7799 1.67077 52.145 3.95661 52.145ZM3.95661 53.5764C2.55871 53.5764 1.65958 54.6455 1.65958 56.0658C1.65958 57.486 2.55424 58.5574 3.95661 58.5574C5.35898 58.5574 6.26258 57.4816 6.26258 56.0658C6.26258 54.65 5.35451 53.5764 3.95661 53.5764Z" fill="white"/>
<path d="M9.06055 52.2702H14.4285V53.6569H10.6754V55.3053H14.3457V56.692H10.6754V59.8524H9.06055V52.2702Z" fill="white"/>
<path d="M15.5508 52.2702H20.9187V53.6569H17.1656V55.3053H20.836V56.692H17.1656V59.8524H15.5508V52.2702Z" fill="white"/>
<path d="M22.043 52.2702H23.6578V59.8524H22.043V52.2702Z" fill="white"/>
<path d="M24.793 56.0658C24.793 53.7374 26.5554 52.1449 28.7719 52.1449C29.4296 52.1192 30.0811 52.2793 30.6519 52.6069C31.2228 52.9344 31.6898 53.4162 31.9994 53.9969L30.6127 54.6791C30.4354 54.345 30.1703 54.0657 29.8459 53.8714C29.5214 53.6771 29.1501 53.5751 28.7719 53.5764C27.4523 53.5764 26.4526 54.6343 26.4526 56.0658C26.4526 57.4972 27.4523 58.5574 28.7719 58.5574C29.1506 58.561 29.5228 58.4599 29.8476 58.2653C30.1724 58.0707 30.4372 57.7902 30.6127 57.4547L31.9994 58.1257C31.6895 58.707 31.2227 59.1897 30.6522 59.519C30.0817 59.8483 29.4303 60.0111 28.7719 59.9888C26.5554 59.9888 24.793 58.3963 24.793 56.0658Z" fill="white"/>
<path d="M32.9648 52.2702H34.5797V59.8524H32.9648V52.2702Z" fill="white"/>
<path d="M40.912 58.5462H37.5235L37.0471 59.8524H35.2734L38.2057 52.2702H40.2298L43.1509 59.8524H41.3884L40.912 58.5462ZM37.9552 57.1461H40.4691L39.2189 53.6793L37.9552 57.1461Z" fill="white"/>
<path d="M43.8555 52.2702H45.4703V58.4321H48.6754V59.8524H43.8555V52.2702Z" fill="white"/>
<path d="M53.6758 52.2702H57.2231C58.8715 52.2702 59.7706 53.3885 59.7706 54.7148C59.7706 56.0412 58.8603 57.1349 57.2231 57.1349H55.2996V59.8524H53.6847L53.6758 52.2702ZM57.0061 53.6569H55.2996V55.7482H57.0151C57.6525 55.7482 58.1334 55.3389 58.1334 54.7037C58.1345 54.559 58.1055 54.4156 58.0481 54.2827C57.9908 54.1499 57.9064 54.0304 57.8004 53.9319C57.6943 53.8335 57.569 53.7582 57.4322 53.7108C57.2955 53.6635 57.1504 53.6451 57.0061 53.6569V53.6569Z" fill="white"/>
<path d="M64.7602 58.5462H61.3717L60.8908 59.8524H59.1172L62.0494 52.2702H64.0736L66.9946 59.8524H65.2321L64.7602 58.5462ZM61.8034 57.1461H64.3174L63.0648 53.6793L61.8034 57.1461Z" fill="white"/>
<path d="M70.5087 57.1349H69.3277V59.8524H67.7129V52.2702H71.2602C72.8392 52.2702 73.8055 53.3035 73.8055 54.7148C73.8055 56.0568 72.9645 56.7726 72.1459 56.9649L73.8524 59.8524H71.9983L70.5087 57.1349ZM71.0209 53.6569H69.3277V55.7482H71.0209C71.6695 55.7482 72.1571 55.3389 72.1571 54.7037C72.1571 54.0685 71.6605 53.6569 71.0119 53.6569H71.0209Z" fill="white"/>
<path d="M76.6501 53.6905H74.4336V52.2702H80.4725V53.6905H78.2672V59.8524H76.6412L76.6501 53.6905Z" fill="white"/>
<path d="M83.1305 54.7596V59.8524H81.5156V52.2702H83.1752L86.689 57.1908V52.2702H88.3038V59.8524H86.7382L83.1305 54.7596Z" fill="white"/>
<path d="M89.8011 52.2702H95.169V53.6569H91.4159V55.3053H95.0885V56.692H91.4159V58.4545H95.1668V59.8524H89.7988L89.8011 52.2702Z" fill="white"/>
<path d="M99.2277 57.1349H98.0445V59.8524H96.4297V52.2702H99.977C101.558 52.2702 102.525 53.3035 102.525 54.7148C102.525 56.0568 101.684 56.7726 100.865 56.9649L102.569 59.8524H100.717L99.2277 57.1349ZM99.7399 53.6569H98.0445V55.7482H99.7399C100.386 55.7482 100.876 55.3389 100.876 54.7037C100.876 54.0685 100.386 53.6569 99.7399 53.6569V53.6569Z" fill="white"/>
</svg>
